# xmcd
#
# Track frame offsets:
#	150
#	13990
#	29566
#	40452
#	55550
#	70954
#	84606
#	98995
#	112255
#	125090
#	141052
#	159851
#	176156
#	189493
#	206258
#
# Disc length: 2977 seconds
#
# Revision: 1
# Processed by: cddbd v1.4PL0 Copyright (c) Steve Scherf et al.
# Submitted via: EasyCDDAExtractor 6.2.0.3
#
DISCID=d80b9f0f
DTITLE=Gauchão 2003 - As Mais Tocadas
DYEAR=2003
DGENRE=Vaneirão
TTITLE0=Não Và (Ao Vivo) - Tchê Guri
TTITLE1=Todo Mundo Veio Pro Rodeio (Ao Vivo) - Candieiro
TTITLE2=Metendo O Pau - Velho Milongueiro
TTITLE3=Pisca Pisca - Gaúcho Da Fronteira
TTITLE4=Tô No Vaneirão - Os Fagundes
TTITLE5=Cd Pirata - Os Filhos Do Rio Grande
TTITLE6=Pinga Na Goela - Os Serranos
TTITLE7=Me Chama No Fole - Tchê Barbaridade
TTITLE8=Como É Que Eu Tô Nesse Corpo - Oswaldir and C.Magrão
TTITLE9=O Som Do Povo - Tchê Garotos
TTITLE10=Mulher Chorona (Ao Vivo) - Candieiro
TTITLE11=Balança Brasil - Gaúcho Da Fronteira
TTITLE12=A Força De Uma Gaita - Tchê Barbaridade
TTITLE13=Quando A Gaita Roncar - Tchê Guri
TTITLE14=Homem É Tudo Igual - Tchê Garotos
EXTD=
EXTT0=
EXTT1=
EXTT2=
EXTT3=
EXTT4=
EXTT5=
EXTT6=
EXTT7=
EXTT8=
EXTT9=
EXTT10=
EXTT11=
EXTT12=
EXTT13=
EXTT14=
PLAYORDER=
